Coordinates
version=1
nRows=12
nColumns=24
inDegrees=yes

Units are S.I. units (second, meters, Newtons, ...)
Angles are in degrees.

endheader
time	pelvis_tilt	pelvis_list	pelvis_rotation	pelvis_tx	pelvis_ty	pelvis_tz	hip_flexion_r	hip_adduction_r	hip_rotation_r	knee_angle_r	ankle_angle_r	subtalar_angle_r	mtp_angle_r	hip_flexion_l	hip_adduction_l	hip_rotation_l	knee_angle_l	ankle_angle_l	subtalar_angle_l	mtp_angle_l	lumbar_extension	lumbar_bending	lumbar_rotation
      5.36500000	     -6.09014605	      2.05043414	     -1.64535878	     -1.34594293	      0.00175361	     -0.27359750	     -1.31450099	      3.40501427	      0.72788435	     -4.47050341	      5.76977143	     -7.96416756	      7.04237780	     29.91182188	     -3.31549927	    -13.59448029	    -37.73147849	      1.46472087	    -12.53634061	     -0.61456923	      0.35598938	     -2.92209203	      5.79870667
      5.37000000	     -5.99367000	      2.05411718	     -1.79476512	     -1.33965224	      0.00103365	     -0.27338341	     -2.03317096	      3.38980866	      0.38468478	     -4.05059816	      5.91600548	     -7.52749727	      8.02688283	     29.90441540	     -3.26440620	    -13.96338441	    -36.13480171	      1.71964147	    -12.20737584	     -1.39522507	      0.19154956	     -2.93466544	      5.97281592
      5.37500000	     -6.12641732	      1.93498908	     -2.03014574	     -1.33347814	     -0.00001229	     -0.27293652	     -2.45218073	      3.54291558	      0.30316906	     -3.74025612	      6.07748155	     -7.34527679	      8.22744518	     30.16548035	     -3.44760361	    -14.47747913	    -34.59101034	      1.87171030	    -11.72571039	     -1.47220403	      0.25351705	     -2.82326459	      6.20475540
      5.38000000	     -5.92142722	      1.94220616	     -2.24875580	     -1.32717487	     -0.00073403	     -0.27271030	     -3.26856680	      3.50558078	     -0.05299262	     -3.36417808	      6.28521702	     -6.71435517	      9.35967394	     29.97836240	     -3.42385304	    -14.97390704	    -32.92373329	      1.98089778	    -11.31291886	     -1.85657037	     -0.02800648	     -2.83025115	      6.43384212
      5.38500000	     -6.00295163	      1.82347490	     -2.51964750	     -1.32097455	     -0.00184524	     -0.27231258	     -3.72878654	      3.63892636	     -0.09972701	     -3.09554466	      6.48888564	     -6.43030392	      9.71836853	     30.13694867	     -3.61730142	    -15.56892735	    -31.34870092	      2.10356474	    -10.66176798	     -1.88616510	     -0.01884953	     -2.70817313	      6.72510584
      5.39000000	     -5.80157881	      1.84180748	     -2.69259886	     -1.31464142	     -0.00266532	     -0.27213924	     -4.50624051	      3.59494271	     -0.53902390	     -2.79077945	      6.66697183	     -5.88240548	     10.88326353	     29.90991151	     -3.55952735	    -16.13222610	    -29.60938352	      2.02108118	    -10.16274912	     -1.83881915	     -0.29756030	     -2.73810963	      6.89046179
      5.39500000	     -5.86572136	      1.74382992	     -2.94043883	     -1.30838371	     -0.00383921	     -0.27181262	     -4.95893608	      3.69869475	     -0.58673778	     -2.58976004	      6.88887721	     -5.62311135	     11.23635296	     29.99941307	     -3.71747533	    -16.83025236	    -27.98376630	      2.08306403	     -9.31720024	     -1.70285076	     -0.30215473	     -2.63926342	      7.14330004
      5.40000000	     -5.70265898	      1.73132611	     -3.18865660	     -1.30209059	     -0.00476581	     -0.27154961	     -5.63460099	      3.69200850	     -0.81709063	     -2.42064496	      7.13403794	     -5.24774476	     11.77248631	     29.76874143	     -3.75046848	    -17.65091090	    -26.23014050	      2.01274230	     -8.51316103	     -1.29255926	     -0.54347066	     -2.63420703	      7.41942815
      5.40500000	     -5.44450258	      1.85568032	     -3.31555750	     -1.29560668	     -0.00559028	     -0.27149662	     -6.43476772	      3.51547222	     -1.21890712	     -2.21238777	      7.34828291	     -4.74356342	     12.93280623	     29.36047302	     -3.53523550	    -18.42108219	    -24.29521256	      1.48254904	     -7.86544364	      0.45420048	     -0.86241596	     -2.78610976	      7.48479238
      5.41000000	     -5.37679593	      1.83206361	     -3.48442352	     -1.28925646	     -0.00667317	     -0.27127564	     -6.98726994	      3.53144626	     -1.41239214	     -2.07893906	      7.44205983	     -4.59199137	     13.80006158	     29.18764276	     -3.56304306	    -19.41323262	    -22.43517220	      0.83614266	     -6.89392089	      3.91989153	     -0.99842599	     -2.78084730	      7.62895989
      5.41500000	     -5.30207831	      1.90593138	     -3.67210850	     -1.28289446	     -0.00766854	     -0.27113394	     -7.49247860	      3.42361533	     -1.54286699	     -2.08155873	      7.80239230	     -4.28649983	     13.86888400	     28.96796556	     -3.46726288	    -20.56812766	    -20.53689214	      0.32599728	     -5.79357303	      6.76742590	     -1.13612479	     -2.87097777	      7.78684331
      5.42000000	     -5.03937070	      2.13504437	     -3.84933326	     -1.27645839	     -0.00838551	     -0.27111323	     -8.21244320	      3.11692053	     -1.62100574	     -2.05265452	      8.14255977	     -4.03821545	     13.93545158	     28.49428212	     -3.13852611	    -21.77956544	    -18.60764578	      0.10727280	     -4.51473232	      8.36940848	     -1.45728906	     -3.12657406	      7.92836121
